<?xml version="1.0" encoding="UTF-8" standalone="no"?>
<!-- Created with Inkscape (http://www.inkscape.org/) -->

<svg
   version="1.1"
   id="svg1791"
   width="1256"
   height="1126.6667"
   viewBox="0 0 1256 1126.6667"
   sodipodi:docname="Shark5b.svg"
   inkscape:version="1.2.2 (732a01da63, 2022-12-09, custom)"
   xmlns:inkscape="http://www.inkscape.org/namespaces/inkscape"
   xmlns:sodipodi="http://sodipodi.sourceforge.net/DTD/sodipodi-0.dtd"
   xmlns="http://www.w3.org/2000/svg"
   xmlns:svg="http://www.w3.org/2000/svg">
  <defs
     id="defs1795" />
  <sodipodi:namedview
     id="namedview1793"
     pagecolor="#ffffff"
     bordercolor="#000000"
     borderopacity="0.25"
     inkscape:showpageshadow="2"
     inkscape:pageopacity="0.0"
     inkscape:pagecheckerboard="0"
     inkscape:deskcolor="#d1d1d1"
     showgrid="false"
     inkscape:zoom="0.73491119"
     inkscape:cx="610.95818"
     inkscape:cy="563.33337"
     inkscape:window-width="1920"
     inkscape:window-height="1031"
     inkscape:window-x="0"
     inkscape:window-y="25"
     inkscape:window-maximized="1"
     inkscape:current-layer="svg1791" />
  <g
     inkscape:groupmode="layer"
     id="layer1"
     inkscape:label="Layer 1"
     style="display:inline">
    <path
       style="fill:#000000;stroke-width:1.33333"
       d="M 610.66667,1119.2075 C 478.90461,1111.9661 363.09792,1068.4587 262.57115,988.43167 239.57672,970.12632 195.27376,925.82931 176.79468,902.66669 127.5236,840.90781 92.736519,771.75352 73.386159,697.09774 32.740863,540.28378 65.763839,373.06069 163.25821,242.00001 255.78155,117.62183 395.15056,35.830945 552.66667,13.469559 585.25564,8.8431457 608.42316,7.6239737 649.764,8.3598893 702.07851,9.2911489 736.42325,13.784031 786,26.181891 c 127.43829,31.86902 243.39,107.974539 320.9113,210.631819 59.9238,79.35386 95.2604,167.21461 107.9954,268.51964 2.3874,18.99095 2.3864,97.02108 0,116 -10.3977,82.64239 -35.0753,154.55682 -76.4157,222.68698 -36.6635,60.4223 -91.0912,119.35475 -149.15637,161.50137 -87.69472,63.6533 -189.53734,101.731 -298.89644,111.7536 -15.81556,1.4495 -66.30225,2.6723 -79.77022,1.9322 z"
       id="path1909" />
    <path
       style="fill:#00aad4;stroke-width:1.33333"
       d="m 697.33333,1108.6144 c 219.22802,-22.6975 403.68717,-161.22936 478.76947,-359.56356 15.8018,-41.7415 26.4215,-87.19182 31.2436,-133.71749 2.4128,-23.27949 2.7789,-73.95531 0.6983,-96.66667 C 1198.2605,411.8616 1158.4573,313.37186 1091.115,229.33334 1074.1583,208.17262 1041.3078,174.12497 1020.866,156.5243 921.5532,71.014713 794.86976,21.459479 662,16.145346 560.69289,12.093561 463.64741,32.508876 374,76.731485 206.98859,159.11735 92.232813,316.00964 68.797127,494.00001 46.774593,661.25773 105.3563,827.8606 228.2284,947.41301 c 98.96095,96.28729 228.75945,153.24279 372.04611,163.25379 22.55378,1.5757 72.14469,0.5271 97.05882,-2.0524 z"
       id="path1937" />
    <g
       id="layer9"
       inkscape:label="Shark2">
      <path
         style="display:inline;fill:#000000;stroke-width:1.33333"
         d="m 678.71051,995.16564 c -14.54307,-12.23718 -19.5137,-52.87811 -11.53446,-94.30827 4.18434,-21.72606 6.9877,-30.54693 14.94794,-47.03414 5.55641,-11.50846 5.88326,-12.82574 5.95494,-24.00001 0.12067,-18.80509 2.26683,-34.0001 8.05287,-57.01412 10.09728,-40.1619 20.76519,-69.58947 36.45968,-100.57441 5.54135,-10.94007 10.07501,-20.71835 10.07479,-21.72952 -2.2e-4,-1.01116 -2.07387,-7.63924 -4.60812,-14.72906 -15.94682,-44.61287 -23.40242,-89.77175 -23.38376,-141.63639 0.012,-32.24789 3.23136,-46.33092 10.79325,-47.20907 4.89795,-0.56878 8.63641,4.13778 26.88295,33.84436 24.3808,39.69361 29.6001,46.76407 40.98274,55.51831 5.5,4.22998 10.62179,7.69443 11.38174,7.69879 1.51285,0.008 18.26837,-27.33544 27.77386,-45.32543 18.37328,-34.77309 25.4452,-68.57128 24.61344,-117.63292 -0.50974,-30.06771 -0.0143,-28.78123 -15.28862,-39.70042 -13.71996,-9.80802 -16.48042,-12.58952 -16.48042,-16.60606 0,-3.5132 2.34847,-6.5056 8.01718,-10.21542 l 3.29261,-2.15481 -7.81713,-10.20596 c -14.78956,-19.30909 -40.74574,-40.9515 -70.72328,-58.9695 -12.33975,-7.41678 -33.19554,-15.9031 -33.89872,-13.79354 -1.50787,4.5236 -17.74043,36.21354 -36.16962,70.61196 -11.59021,21.63333 -24.46136,45.7634 -28.60256,53.62237 -10.0875,19.14364 -12.90612,22.37763 -19.50342,22.37763 -3.74214,0 -5.54814,-0.71048 -6.54614,-2.57525 -3.72812,-6.96606 -6.43066,-26.73958 -8.98748,-65.75808 l -0.67713,-10.33334 h 4.80784 4.80785 v -11.41817 c 0,-7.05878 1.29035,-17.62175 3.37971,-27.66667 8.38828,-40.32812 11.77032,-64.84724 11.80475,-85.58183 0.0328,-19.77103 -0.0219,-20.14501 -4.77182,-32.66667 -10.93816,-28.83447 -20.40748,-50.332592 -25.37666,-57.612447 -7.08718,-10.382727 -15.6565,-29.938575 -15.682,-35.787552 -0.0419,-9.603748 4.8687,-10.197489 20.27482,-2.451445 24.1303,12.13248 49.21952,31.55965 67.37579,52.170654 12.104,13.74047 30.16472,40.51675 38.16256,56.57867 3.34971,6.72718 6.67524,12.59268 7.39005,13.03447 0.71483,0.44179 9.39688,2.24951 19.29346,4.01718 33.4178,5.96884 68.48492,16.07966 98.14934,28.29917 45.73468,18.83923 95.35964,53.5038 124.41728,86.90932 40.30279,46.33328 68.93019,102.16974 84.17279,164.17533 7.6747,31.21985 9.3684,46.12269 9.3193,82 -0.04,29.44456 -0.3258,33.32748 -3.5757,48.62311 -1.9425,9.1427 -3.4123,16.71893 -3.2661,16.83606 0.5408,0.4333 27.1588,-3.34006 33.5991,-4.763 3.6667,-0.81012 18.0667,-5.1327 32,-9.60573 30.055,-9.64859 41.6635,-11.22384 47.6667,-6.46824 6.0631,4.80315 5.0862,9.99901 -4.1922,22.29573 -16.2733,21.56723 -40.9219,44.94798 -69.9069,66.31115 -15.9028,11.72103 -49.8077,32.053 -73.4859,44.06775 l -21.2515,10.78347 -5.4151,8.76594 c -20.08274,32.50997 -47.12198,74.32373 -57.27459,88.56999 -15.10344,21.19334 -45.61106,55.01239 -68.88256,76.35942 -41.2587,37.84676 -60.69911,51.05433 -119.25795,81.02239 -43.40325,22.21204 -49.44325,24.53531 -63.78648,24.53531 -10.29803,0 -11.72532,-0.32232 -15.50301,-3.50106 z"
         id="path2007" />
      <g
         id="layer10"
         inkscape:label="Body"
         style="display:inline;fill:#aca793">
        <path
           style="display:inline;fill:#aca793;stroke-width:1.33333"
           d="m 717.20368,985.86376 c 15.74608,-6.2486 66.79727,-32.90561 86.12965,-44.97367 62.39422,-38.94896 119.11388,-96.97736 160.77919,-164.48897 5.34084,-8.65394 14.70991,-23.77494 20.82013,-33.60223 6.11024,-9.82729 10.84739,-18.12994 10.52702,-18.45031 -0.32038,-0.32039 -5.64603,1.06649 -11.83478,3.08195 -11.50221,3.74585 -16.1568,3.64665 -15.3901,-0.32799 0.29761,-1.5428 6.85725,-4.65356 21.09854,-10.00551 24.98437,-9.38925 39.93167,-16.48305 61.60507,-29.23701 42.457,-24.98424 72.3288,-47.20063 95.0893,-70.72011 13.9526,-14.41797 27.2709,-31.16141 27.2928,-34.31212 0.022,-3.15371 -13.981,-0.63279 -37.5922,6.7676 -47.4565,14.87413 -38.4096,13.48353 -91.5313,14.06935 l -47.13625,0.51982 -6.68047,14.24106 c -9.25737,19.73439 -13.04695,23.66467 -13.04695,13.53139 0,-8.19344 7.35644,-25.83486 13.43976,-32.22975 l 5.18662,-5.45227 24.35349,0.93104 c 13.3944,0.51208 26.4535,1.25245 29.0201,1.64529 l 4.6667,0.71424 3.2875,-14.44944 c 2.8722,-12.62354 3.3503,-18.40885 3.7835,-45.78277 0.2975,-18.78964 -0.121,-36.40419 -1.0453,-44 -7.3665,-60.53963 -33.896,-125.91429 -72.9909,-179.86587 -9.00321,-12.42459 -44.01249,-50.26755 -45.30644,-48.97361 -0.26709,0.2671 0.0955,3.11523 0.8056,6.32922 1.06203,4.80638 6.79937,45.61924 6.79937,48.36767 0,1.82641 -3.9952,0.63958 -5.1305,-1.52408 -0.67338,-1.28334 -2.24571,-8.63334 -3.49407,-16.33334 -2.70272,-16.67054 -5.60732,-28.67973 -8.0538,-33.29864 l -1.78395,-3.36803 -2.73956,6 c -3.31782,7.26651 -3.44906,10.94788 -0.67997,19.07471 1.16497,3.41903 1.89793,6.87706 1.62879,7.6845 -0.74048,2.22145 -7.26467,-4.92103 -10.3875,-11.37195 -3.03117,-6.26156 -3.02216,-6.31463 3.57382,-21.05392 1.887,-4.21667 4.24897,-7.66667 5.24882,-7.66667 6.10712,0 -1.2289,-5.97201 -28.49088,-23.19344 -36.29157,-22.92545 -95.45553,-44.60137 -144.11796,-52.80055 -18.16916,-3.06133 -25.6361,-5.26452 -35.57324,-10.49617 l -6.66666,-3.50984 5.66666,-0.41 C 721.45,166.69784 724,166.14903 724,165.70375 c 0,-0.44527 -2.48447,-5.33641 -5.52103,-10.86919 -25.42329,-46.32254 -55.2861,-77.218791 -96.21008,-99.539529 -4.98544,-2.719159 -9.32949,-4.678876 -9.65344,-4.354927 -1.05628,1.056274 9.53864,21.566194 14.45487,27.98214 4.84355,6.321068 23.90501,52.450386 29.0934,70.406856 4.1954,14.51982 3.43876,33.96708 -2.78087,71.47399 -2.9061,17.52497 -6.5061,37.77964 -8,45.01036 -1.58194,7.65684 -2.71618,18.26357 -2.71618,25.4 0,13.45671 -0.91587,15.45323 -7.08884,15.45323 -3.40186,0 -3.77986,0.37568 -3.01852,3 0.47866,1.65 1.44921,9 2.15677,16.33333 2.41967,25.07828 4.08659,37.33337 5.23432,38.48243 1.56181,1.56358 5.41312,-4.75335 21.02328,-34.48243 7.31613,-13.93333 19.7588,-37.5052 27.6504,-52.38191 7.89159,-14.87672 16.97829,-32.87672 20.19267,-40 5.21837,-11.56428 5.61612,-13.12043 3.71361,-14.52939 -3.35764,-2.48656 -0.91079,-4.42204 5.59039,-4.42204 16.65994,0 53.472,19.62622 84.17097,44.87544 13.17075,10.83266 31.92515,30.56926 38.66788,40.69298 2.50548,3.7618 4.45135,5.10224 8.36716,5.76381 6.33264,1.0699 8.01644,3.00762 12.4682,14.34847 4.10299,10.4524 4.07993,10.31931 1.78783,10.31931 -2.29771,0 -8.04428,-6.20879 -10.79815,-11.66667 -1.59447,-3.16007 -3.09408,-4.33333 -5.53867,-4.33333 -3.86648,0 -13.91264,4.78685 -13.91264,6.62917 0,0.68289 4.05,3.88976 9,7.12637 14.24952,9.31719 23,20.3451 23,28.98607 0,2.76989 0.65659,5.25503 1.45908,5.52252 2.14914,0.71639 3.75022,10.81461 3.81619,24.0692 0.0473,9.5073 -0.31211,11.66667 -1.94193,11.66667 -1.64318,0 -2.04842,-2.67617 -2.2714,-15 -0.23574,-13.02963 -0.31612,-13.51127 -0.61196,-3.66667 -1.27211,42.33208 -5.53258,67.99938 -15.53196,93.57279 -8.96366,22.92455 -12.71364,29.75483 -54.0388,98.42722 -46.63199,77.49104 -67.73084,118.14428 -79.23336,152.66667 -14.18363,42.5692 -20.92946,69.51407 -20.96167,83.72727 -0.0145,6.44001 0.52768,8.27248 3.25521,11 3.14716,3.14716 3.95416,3.27273 21.03344,3.27273 15.2803,0 20.08371,-0.5684 34.39395,-4.06992 9.14827,-2.23845 24.57401,-5.54015 34.27944,-7.33709 21.85519,-4.04647 34.01185,-8.47874 39.90873,-14.55058 2.44478,-2.51729 4.44504,-5.22688 4.44504,-6.02129 0,-0.79441 2.1,-2.68341 4.66667,-4.19779 2.56667,-1.51437 4.66667,-3.20652 4.66667,-3.76033 0,-1.92312 6.55108,-8.063 8.603,-8.063 3.18386,0 2.443,4.52261 -1.26967,7.75073 -1.83333,1.59407 -3.33333,3.67276 -3.33333,4.61934 0,0.94656 -3.32478,5.00053 -7.38838,9.00881 -4.0636,4.00828 -9.10408,10.32323 -11.20105,14.0332 -16.46744,29.13427 -89.46671,62.07314 -119.24347,53.80526 -2.84142,-0.78896 -6.44142,-1.6646 -8,-1.94587 -1.55857,-0.28127 -4.77912,-2.727 -7.15676,-5.43495 l -4.32298,-4.92353 -4.74914,10.27888 c -12.87286,27.86164 -17.93716,77.17241 -10.143,98.76192 1.5793,4.37459 2.91362,10.07459 2.96516,12.66667 0.0736,3.70045 0.3175,4.14003 1.13542,2.04621 0.90812,-2.32468 2.05286,-2.61049 8.92641,-2.22869 7.02463,0.3902 8.81739,-0.0892 16.43508,-4.39499 C 712.55181,967.83292 718,967.02486 718,970.62194 c 0,1.07538 -4.8,4.61582 -10.66667,7.86765 -11.50773,6.37859 -20.7195,8.33648 -25.97909,5.52163 -2.97039,-1.5897 -2.98884,-1.55876 -0.87256,1.46265 6.02423,8.60079 15.77032,8.70427 36.722,0.38989 z"
           id="path2009" />
        <path
           style="display:inline;fill:#aca793;stroke-width:1.33333"
           d="m 764.65287,614.66668 c 7.9071,-13.56666 18.84308,-32.02222 24.30216,-41.01236 5.45909,-8.99013 9.72748,-16.88241 9.48529,-17.5384 -0.24217,-0.65598 -5.71797,-5.79654 -12.16843,-11.42349 -13.77693,-12.01804 -17.34214,-16.67257 -31.16902,-40.69242 -19.27476,-33.48381 -28.12624,-47.09301 -28.90455,-44.44086 -5.29541,18.04437 -4.65685,71.16303 1.27957,106.44087 3.27746,19.47666 16.49319,68.28269 20.1595,74.44951 0.9797,1.64789 1.39254,1.02234 17.01548,-25.78285 z"
           id="path2071" />
      </g>
      <g
         id="layer11"
         inkscape:label="Lines"
         style="display:inline">
        <path
           style="display:inline;fill:#000000;stroke-width:1.33333"
           d="m 833.593,240.33334 c -1.42372,-2.01667 -4.43333,-7.26667 -6.68803,-11.66667 -2.25469,-4.4 -5.3027,-9.77198 -6.77336,-11.93776 -2.27365,-3.34829 -2.80532,-3.59533 -3.55169,-1.6503 -0.87557,2.28172 -0.34268,6.90505 1.45093,12.58806 0.6899,2.18588 0.41154,3 -1.02569,3 -3.83076,0 -26.4372,-13.64066 -29.70349,-17.92301 -7.14078,-9.36203 -1.97268,-10.01396 9.83373,-1.24048 4.56648,3.39341 8.51607,5.94341 8.77685,5.66667 0.26079,-0.27675 1.40604,-2.75183 2.545,-5.50019 2.75506,-6.64803 7.50924,-8.87193 12.2815,-5.74504 3.88668,2.54665 17.89484,29.97191 17.91568,35.07539 0.0164,4.03581 -1.92182,3.78052 -5.06143,-0.66667 z"
           id="path2049" />
        <path
           style="display:inline;fill:#000000;stroke-width:1.33333"
           d="m 844.33333,255.84661 c -4.72064,-3.02318 -5.90594,-7.8466 -1.92822,-7.8466 2.77496,0 11.42866,8.38845 10.06278,9.75433 -1.50196,1.50195 -3.5664,1.01779 -8.13456,-1.90773 z"
           id="path2047" />
        <path
           style="display:inline;fill:#000000;stroke-width:1.33333"
           d="m 948.21403,333.93728 c -1.93036,-4.23668 -2.02728,-12.60394 -0.14599,-12.60394 1.81579,0 5.26529,8.2704 5.26529,12.62384 0,4.38819 -3.11637,4.37607 -5.1193,-0.0199 z"
           id="path2045" />
        <path
           style="display:inline;fill:#000000;stroke-width:1.33333"
           d="m 866.66667,410.00001 c 0,-1.83333 0.6,-3.33333 1.33333,-3.33333 0.73333,0 1.33333,1.5 1.33333,3.33333 0,1.83334 -0.6,3.33334 -1.33333,3.33334 -0.73333,0 -1.33333,-1.5 -1.33333,-3.33334 z"
           id="path2043" />
        <path
           style="display:inline;fill:#000000;stroke-width:1.33333"
           d="m 982.66667,492.88265 c 0,-0.37012 -0.91426,-11.97012 -2.03167,-25.77778 -2.62459,-32.4314 -7.66024,-66.4809 -12.6646,-85.63407 -4.42304,-16.92823 -4.50599,-17.47079 -2.67131,-17.47079 6.09158,0 15.12614,43.88238 19.39267,94.19338 2.32443,27.40976 2.25703,33.95646 -0.35843,34.81505 -0.91666,0.30092 -1.66666,0.24432 -1.66666,-0.12573 z"
           id="path2041" />
        <path
           style="display:inline;fill:#000000;stroke-width:1.33333"
           d="m 984,507.33335 c 0,-1.1 0.6,-2 1.33333,-2 0.73334,0 1.33334,0.9 1.33334,2 0,1.1 -0.6,2 -1.33334,2 -0.73333,0 -1.33333,-0.9 -1.33333,-2 z"
           id="path2039" />
        <path
           style="display:inline;fill:#000000;stroke-width:1.33333"
           d="m 980.57879,566.48526 c 0.45297,-4.66688 1.37081,-18.29802 2.03966,-30.2914 0.66886,-11.99339 1.55332,-22.14339 1.96548,-22.55556 1.02419,-1.02418 0.64367,51.39285 -0.40834,56.25172 -0.46324,2.1395 -1.64734,4.15786 -2.63132,4.48524 -1.42678,0.4747 -1.62228,-1.12299 -0.96548,-7.89 z"
           id="path2037" />
        <path
           style="display:inline;fill:#000000;stroke-width:1.33333"
           d="m 978.66667,586.74538 c 0,-2.24328 0.6,-4.0787 1.33333,-4.0787 0.73333,0 1.33333,1.46459 1.33333,3.25464 0,1.79006 -0.6,3.62547 -1.33333,4.0787 -0.77789,0.48077 -1.33333,-0.87504 -1.33333,-3.25464 z"
           id="path2035" />
        <path
           style="display:inline;fill:#000000;stroke-width:1.33333"
           d="m 921.47783,747.5409 c -2.48719,-1.58078 -6.24776,-4.48856 -8.35682,-6.46172 -2.38896,-2.23505 -5.67194,-3.74306 -8.70809,-4 -7.44825,-0.63038 -7.32963,-3.74582 0.14264,-3.74582 3.36111,0 6.11111,0.49608 6.11111,1.10241 0,0.60632 1.6993,0.853 3.77624,0.54817 3.08346,-0.45256 4.91804,0.58756 10,5.66952 9.24284,9.24284 7.41636,13.48546 -2.96508,6.88738 z"
           id="path2033" />
        <path
           style="display:inline;fill:#000000;stroke-width:1.33333"
           d="M 955.76415,767.09791 C 954.79387,765.95552 952.2,761.34118 950,756.8438 c -3.65064,-7.46284 -4.33455,-8.14128 -7.83032,-7.76759 -3.47435,0.3714 -3.75348,0.10333 -3.00359,-2.88449 0.93755,-3.73544 -3.52088,-8.27779 -12.74242,-12.98227 -2.87115,-1.46475 -5.55522,-3.53607 -5.96462,-4.60294 -0.4094,-1.06693 -1.94436,-1.93982 -3.41102,-1.93982 -1.88386,0 -2.42908,-0.61912 -1.85735,-2.10906 0.44513,-1.15997 0.80932,-2.35997 0.80932,-2.66666 0,-0.30668 0.9,-0.55762 2,-0.55762 1.1,0 2,0.94043 2,2.08986 0,1.48832 0.77337,1.84438 2.68687,1.23706 2.93026,-0.93002 9.54728,2.61878 16.86834,9.04675 4.01644,3.5265 7.11146,3.91968 7.11146,0.90344 0,-0.6777 -3.03831,-2.77181 -6.7518,-4.65357 -4.70974,-2.38662 -6.62112,-4.10727 -6.31971,-5.68914 0.69073,-3.62522 6.00499,-3.42212 12.67072,0.48426 4.99496,2.92725 6.63431,3.32729 8.60121,2.09894 2.51122,-1.56828 6.46624,-2.06005 6.46624,-0.80402 0,0.39246 -0.90281,2.09145 -2.00626,3.77552 -1.8556,2.83201 -1.70723,3.60447 1.97585,10.28643 2.19016,3.97346 3.99297,7.67448 4.00625,8.22448 0.0589,2.43984 -4.89269,0.63446 -8.89238,-3.2422 -4.09928,-3.97318 -7.86948,-4.38967 -5.0363,-0.55636 6.49083,8.7821 8.95088,13.37729 9.54903,17.83681 0.78739,5.87043 -2.01536,8.43488 -5.16537,4.7262 z"
           id="path2031" />
        <path
           style="display:inline;fill:#000000;stroke-width:1.33333"
           d="m 940.57525,767.12561 c -3.61638,-4.88093 -7.39354,-9.97356 -8.39366,-11.31695 -1.56836,-2.10665 -1.51158,-2.56028 0.41293,-3.29878 3.99267,-1.53214 18.07215,14.89418 18.07215,21.08452 0,4.62328 -3.56735,2.33654 -10.09142,-6.46879 z"
           id="path2029" />
        <path
           style="display:inline;fill:#000000;stroke-width:1.33333"
           d="m 935.3778,789.66669 c -3.22781,-4.85136 -14.32095,-15.28044 -25.5332,-24.00475 -6.8028,-5.29329 -16.774,-9.66192 -22.05291,-9.66192 -3.07704,0 -3.88621,-0.53264 -3.54472,-2.33333 0.46578,-2.45607 7.75303,-4.22509 7.75303,-1.88211 0,0.73355 2.23317,0.9955 5.15065,0.60418 4.88299,-0.65495 5.88275,-0.0868 19.2389,10.93433 13.52582,11.16108 24.94378,24.53747 24.94378,29.2222 0,3.56653 -2.45769,2.37861 -5.95553,-2.8786 z"
           id="path2027" />
        <path
           style="display:inline;fill:#000000;stroke-width:1.33333"
           d="m 877.33333,827.90548 c 0,-0.78532 3.85454,-5.73532 8.56563,-11 4.71109,-5.26467 12.38172,-14.62095 17.04584,-20.79174 7.97348,-10.5492 10.43029,-12.65509 11.39335,-9.76596 0.57122,1.71371 -18.71539,27.58972 -26.82175,35.98558 -6.42281,6.65217 -10.18307,8.70977 -10.18307,5.57212 z"
           id="path2025" />
        <path
           style="display:inline;fill:#000000;stroke-width:1.33333"
           d="m 869.33333,836.16328 c 0,-0.64354 0.9,-1.917 2,-2.82992 1.67094,-1.38676 2,-1.19424 2,1.17008 0,1.6266 -0.85042,2.82992 -2,2.82992 -1.1,0 -2,-0.52654 -2,-1.17008 z"
           id="path2023" />
        <path
           style="display:inline;fill:#000000;stroke-width:1.33333"
           d="m 865.33333,840.7778 c 0,-1.16111 0.95,-2.11111 2.11111,-2.11111 1.16112,0 1.87361,0.71249 1.58333,1.58333 -0.82409,2.4723 -3.69444,2.88235 -3.69444,0.52778 z"
           id="path2021" />
        <path
           style="display:inline;fill:#000000;stroke-width:1.33333"
           d="m 829.33333,873.62969 c 0,-1.92789 30.44624,-29.62967 32.56514,-29.62967 4.00489,0 2.05876,3.44674 -6.89847,12.21771 -14.11681,13.82326 -25.66667,21.65855 -25.66667,17.41196 z"
           id="path2019" />
        <path
           style="display:inline;fill:#000000;stroke-width:1.33333"
           d="m 744.76191,932.57145 c -1.15239,-1.15237 -2.09524,-3.55237 -2.09524,-5.33333 0,-2.56508 0.69281,-3.23809 3.33333,-3.23809 2.00439,0 3.33333,0.76154 3.33333,1.91014 0,1.05059 1.2,2.29102 2.66667,2.75652 1.46667,0.46551 2.66667,2.00594 2.66667,3.42319 0,3.26309 -6.79298,3.59337 -9.90476,0.48157 z"
           id="path2015" />
        <path
           style="display:inline;fill:#000000;stroke-width:1.33333"
           d="m 752,948.31612 c 0,-1.72393 37.92844,-38.98276 39.68335,-38.98276 3.97838,0 0.93781,4.19828 -16.28308,22.48285 C 763.73337,944.20375 752,952.47713 752,948.31612 Z"
           id="path2013" />
        <path
           style="display:inline;fill:#000000;stroke-width:1.33333"
           d="m 720,967.54002 c 0,-1.98694 4.1668,-6.20666 6.12881,-6.20666 0.68868,0 3.45962,-1.5 6.1576,-3.33333 9.5092,-6.46167 12.7508,-2.7255 3.47052,4 C 726.40079,968.78051 720,971.03096 720,967.54002 Z"
           id="path2011" />
      </g>
      <path
         style="display:inline;fill:#aa0000;stroke-width:1.33333"
         d="m 711.63863,848.66669 c 2.99857,-2.56666 6.07602,-4.66667 6.8388,-4.66667 0.76277,0 3.00854,2.12614 4.9906,4.72474 l 3.60373,4.72475 3.89452,-4.72475 c 2.14199,-2.5986 4.41692,-4.72474 5.05541,-4.72474 0.63848,0 2.19891,1.75725 3.46762,3.90499 1.2687,2.14775 3.35589,4.17936 4.6382,4.5147 2.38301,0.62317 9.20582,-5.30303 9.20582,-7.99605 0,-0.78674 0.88796,-2.16738 1.97324,-3.06809 1.6089,-1.33527 2.74427,-0.98885 6.14918,1.87619 4.80958,4.047 6.13112,3.48187 11.40898,-4.87883 3.72723,-5.90431 5.3847,-6.16837 10.59455,-1.68787 4.89981,4.21387 5.37208,4.18123 9.6246,-0.66504 1.93047,-2.2 4.16408,-4 4.96357,-4 0.79951,0 3.1151,-1.73418 5.14576,-3.85374 6.1954,-6.4666 1.48099,-6.18307 -7.2202,0.43424 -4.40153,3.3474 -8.32474,6.08617 -8.71824,6.08617 -0.39349,0 -2.17605,-1.57604 -3.96126,-3.50231 -3.1928,-3.44509 -3.30611,-3.46388 -6.93634,-1.15073 -2.02977,1.29336 -4.9913,3.9194 -6.58117,5.83564 l -2.89067,3.48407 -3.93996,-3.75386 -3.93996,-3.75385 -5.16937,4.74748 c -5.99228,5.50323 -6.99493,5.69648 -10.86221,2.09356 -3.77423,-3.51623 -4.72266,-3.39107 -10.10346,1.33333 -2.50565,2.2 -5.07653,3.99042 -5.71306,3.97871 -0.63652,-0.012 -3.17867,-1.80303 -5.6492,-3.98069 -4.2564,-3.75182 -6.84144,-4.17994 -6.84144,-1.13306 0,1.76163 -5.48684,6.36591 -7.65538,6.42402 -0.91045,0.0244 -2.40477,-1.15564 -3.32072,-2.62231 -3.78964,-6.06817 -5.1304,-0.62923 -1.59292,6.46182 1.15371,2.31266 2.54572,4.20485 3.09334,4.20485 0.54762,0 3.44906,-2.1 6.44764,-4.66667 z"
         id="path2057" />
      <g
         id="layer12"
         inkscape:label="Teeth"
         style="display:inline;fill:#e9ddaf">
        <path
           style="display:inline;fill:#e9ddaf;stroke-width:1.33333"
           d="m 791.88889,825.71042 c 0.30555,-0.20751 -1.02561,-0.37729 -2.95816,-0.37729 -2.60162,0 -3.3111,0.52798 -2.73317,2.03402 0.63631,1.65822 1.18288,1.72792 2.95815,0.3773 1.19769,-0.9112 2.42762,-1.82652 2.73318,-2.03403 z"
           id="path2069" />
        <path
           style="display:inline;fill:#e9ddaf;stroke-width:1.33333"
           d="m 769.33333,829.99979 c 1.00503,-1.21097 1.11246,-2 0.27231,-2 -2.44928,0 -5.60564,1.58184 -5.60564,2.80932 0,1.90775 3.52192,1.37331 5.33333,-0.80932 z"
           id="path2067" />
        <path
           style="display:inline;fill:#e9ddaf;stroke-width:1.33333"
           d="m 750,833.79075 c 2.60116,-2.07204 2.58479,-2.1042 -0.66667,-1.30913 -1.83333,0.44831 -3.81874,0.82329 -4.41202,0.83331 -0.59328,0.0107 -0.70787,0.6182 -0.25464,1.35153 1.11533,1.80464 2.19006,1.62819 5.33333,-0.87571 z"
           id="path2065" />
        <path
           style="display:inline;fill:#e9ddaf;stroke-width:1.33333"
           d="m 732.6,835.84994 c 0.75165,-0.70229 -1.01025,-1.18348 -4.33333,-1.18348 -3.08,0 -5.6,0.55 -5.6,1.22223 0,2.80206 6.9217,2.77506 9.93333,-0.0388 z"
           id="path2063" />
        <path
           style="display:inline;fill:#e9ddaf;stroke-width:1.33333"
           d="m 709.90663,835.84894 c -0.40187,-0.65024 -1.91638,-1.18225 -3.36556,-1.18225 -2.24919,0 -2.41924,0.40296 -1.16166,2.75276 1.17264,2.19111 1.85932,2.43232 3.36556,1.18225 1.04079,-0.86377 1.56354,-2.10252 1.16166,-2.75276 z"
           id="path2061" />
        <path
           style="display:inline;fill:#e9ddaf;stroke-width:1.33333"
           d="m 778.52829,843.84846 c 4.29934,-1.49874 4.96671,-4.18209 1.22094,-4.90902 -1.11639,-0.21666 -3.03051,1.13334 -4.25359,3 -2.55748,3.90321 -2.60395,3.87396 3.03265,1.90902 z"
           id="path2059" />
        <path
           style="display:inline;fill:#e9ddaf;stroke-width:1.33333"
           d="m 756.52088,853.33336 c 0.89985,0 2.69055,-0.77103 3.97931,-1.71339 2.22258,-1.6252 2.211,-1.83302 -0.22495,-4.03753 -2.47124,-2.23644 -2.71041,-2.13763 -6.33813,2.61855 -2.81246,3.68733 -3.17087,4.7128 -1.41116,4.03753 1.29736,-0.49784 3.09506,-0.90516 3.99493,-0.90516 z"
           id="path2055" />
        <path
           style="display:inline;fill:#e9ddaf;stroke-width:1.33333"
           d="m 736.66667,859.21233 c 6.2281,-1.42364 6.42696,-1.89646 2.46408,-5.85933 l -3.71334,-3.71333 -3.67161,4.84684 c -4.28245,5.65321 -4.64855,7.29474 -1.41247,6.33336 1.28334,-0.38127 4.13334,-1.10466 6.33334,-1.60754 z"
           id="path2053" />
        <path
           style="display:inline;fill:#e9ddaf;stroke-width:1.33333"
           d="m 724.39117,858.6482 c 0.39851,-1.52393 -0.7842,-3.80323 -3.14918,-6.06903 l -3.78739,-3.62853 -4.87259,4.27819 c -4.52076,3.96928 -4.67062,4.33101 -2.07564,5.00961 1.53834,0.40229 2.52683,1.16853 2.19664,1.70277 -0.33017,0.53424 2.02099,1.01098 5.22482,1.0594 4.56856,0.0691 5.96281,-0.43838 6.46334,-2.35241 z"
           id="path2051" />
      </g>
      <path
         style="display:inline;fill:#00d4aa;stroke-width:1.33333"
         d="m 799.55556,931.11113 c -1.43341,-1.4334 -1.02036,-11.03114 0.61105,-14.19876 3.013,-5.85012 6.88066,-8.91234 11.2565,-8.91234 2.68338,0 4.59486,0.79033 5.1009,2.10905 1.67555,4.3664 0.73476,13.33021 -1.84273,17.55761 -2.32872,3.81938 -3.32968,4.33334 -8.43945,4.33334 -3.18856,0 -6.19739,-0.4 -6.68627,-0.8889 z"
         id="path2017" />
    </g>
    <g
       id="layer8"
       inkscape:label="Shark1">
      <path
         style="display:inline;fill:#000000;stroke-width:1.33333"
         d="m 670.66667,1073.4154 c -10.28084,-3.1524 -36.674,-19.4496 -52,-32.1088 -24.71179,-20.4118 -46.14895,-47.71084 -62.21756,-79.23064 -4.13364,-8.10843 -8.14702,-15.15299 -8.91864,-15.65456 -0.77162,-0.50157 -4.43163,-1.30997 -8.13338,-1.79644 C 499.99675,939.44713 450.71691,924.46812 412.66667,906.1042 341.39395,871.70636 292.71279,824.80336 256.81352,755.94384 234.72907,713.58295 221.02827,671.88382 214.58856,627.42982 c -2.53088,-17.47088 -2.80192,-23.82643 -2.21768,-52 0.57905,-27.92267 1.08873,-33.87547 3.91949,-45.77692 l 3.2539,-13.68046 -8.77214,0.7815 C 195.244,518.13731 181.21319,521.43643 156,529.63271 c -20.53264,6.67473 -26.67781,8.12593 -36.66667,8.65892 -11.52739,0.61508 -12.12454,0.50673 -15.16237,-2.75109 -4.899363,-5.25419 -3.15428,-10.27792 8.666,-24.94764 17.71884,-21.99022 38.17861,-41.10261 65.83844,-61.50265 16.85449,-12.43074 56.95511,-36.6995 76.90043,-46.53988 l 18.90916,-9.32917 13.7575,-22.00206 c 45.95508,-73.49485 65.91894,-100.23259 101.00879,-135.2818 45.78697,-45.73395 78.32833,-68.80614 142.29401,-100.88802 36.91619,-18.51526 45.44267,-21.71598 57.84976,-21.71598 11.84856,0 16.4844,3.0595 22.22336,14.66666 6.59328,13.33503 8.82526,27.35324 8.04454,50.52483 -1.05399,31.28159 -7.4559,58.94475 -18.83187,81.37395 -4.26831,8.41551 -4.50757,9.70568 -5.95308,32.10123 -1.19444,18.50553 -2.45716,27.19557 -6.10289,42 -10.48935,42.59475 -22.63691,76.68891 -38.28676,107.45823 l -10.57498,20.79156 4.14244,11.20844 c 6.23802,16.87855 14.2186,45.00786 17.30155,60.98304 8.84211,45.81808 10.34043,110.32243 2.91649,125.55874 -1.94672,3.99529 -2.93718,4.66667 -6.88457,4.66667 -6.39752,0 -6.90463,-0.6929 -39.97873,-54.62557 -12.336,-20.11584 -16.91767,-25.71241 -28.11944,-34.34837 -5.47678,-4.22231 -10.26088,-7.68047 -10.63135,-7.68483 -1.65437,-0.0195 -29.39449,47.98427 -34.57297,59.82781 -13.1102,29.9839 -17.41036,54.619 -17.41636,99.77616 -0.003,24.26191 0.32766,28.94449 2.32957,32.9672 1.28333,2.57876 2.76892,4.70341 3.30131,4.72147 2.55249,0.0865 23.42652,16.37489 24.77352,19.33122 2.05046,4.50028 -0.13734,9.23802 -5.9148,12.80868 l -4.38208,2.70828 4.87797,6.92564 c 16.85227,23.92644 62.39311,59.31979 92.20356,71.65859 15.95309,6.60312 13.13109,8.59487 26.90689,-18.99066 6.70419,-13.42492 19.55719,-38.20895 28.56222,-55.07562 9.00502,-16.86667 19.76254,-37.09789 23.90561,-44.95829 8.51188,-16.14904 14.78307,-23.70838 19.6684,-23.70838 5.12628,0 7.67981,2.77854 9.80981,10.67418 2.07774,7.70189 6.28816,47.00665 6.49798,60.65916 l 0.12293,8 -4.33333,0.41781 -4.33334,0.41781 -0.0107,9.58219 c -0.005,5.2702 -1.52276,16.78219 -3.37098,25.58219 -7.55946,35.99316 -12.61893,71.978 -12.60653,89.66256 0.0107,15.89673 0.30449,17.82902 4.50436,29.67078 4.63788,13.07674 18.87077,48.8026 20.54003,51.5574 0.51902,0.8565 3.2627,4.9622 6.09706,9.1236 6.39919,9.3955 15.5133,30.1403 15.5133,35.3101 0,2.4749 -1.06218,4.6017 -2.96335,5.9333 -3.26875,2.2895 -3.01381,2.2622 -7.70332,0.8243 z"
         id="path1939" />
      <g
         id="layer6"
         inkscape:label="Body"
         style="fill:#6f918a">
        <path
           style="display:inline;fill:#6f918a;stroke-width:1.33333"
           d="m 670.66667,1060.6401 c 0,-1.9664 -12.28311,-24.7719 -15.22574,-28.269 -1.87784,-2.2317 -7.82573,-15.0782 -13.21756,-28.5477 -17.525,-43.77986 -16.2265,-38.45058 -16.20046,-66.49004 0.0244,-26.30024 0.67889,-31.36453 10.71696,-82.92981 3.00645,-15.44402 4.59346,-27.47995 4.59346,-34.83675 0,-12.54026 1.42755,-15.16818 7.4224,-13.66356 2.89246,0.72596 3.34064,0.47808 2.74428,-1.51778 -2.2166,-7.41841 -3.42544,-15.99176 -4.09633,-29.0521 -0.41437,-8.06667 -1.51173,-17.95755 -2.43856,-21.97974 l -1.68516,-7.31308 -3.4692,4.64642 c -1.90805,2.55552 -12.02869,21.1464 -22.49032,41.31306 -47.83285,92.20649 -49.71189,96.09174 -46.92279,97.02145 0.8813,0.29376 1.60235,1.38412 1.60235,2.423 0,3.28618 -14.56571,2.40572 -24.96956,-1.50934 -18.54712,-6.97944 -42.38261,-21.5641 -64.28583,-39.33574 -14.77321,-11.98657 -25.81894,-23.38446 -37.08374,-38.26603 -5.98722,-7.90954 -7.98818,-9.66667 -11.00804,-9.66667 -5.35054,0 -8.71131,-3.53608 -12.57399,-13.22988 -3.61088,-9.06187 -4.168,-12.10345 -2.21696,-12.10345 1.74505,0 9.08548,8.68344 10.13456,11.98877 1.59947,5.03948 6.63039,5.74749 14.06609,1.97953 3.63227,-1.84061 6.60414,-3.60738 6.60414,-3.92617 0,-0.31877 -4.05,-3.22773 -9,-6.46435 -14.46574,-9.45856 -23,-20.32436 -23,-29.28352 0,-3.54092 -0.78427,-5.90696 -2.33334,-7.03942 -1.95965,-1.43263 -2.40868,-4.39226 -2.80377,-18.48033 -0.32591,-11.62121 -0.0187,-16.77452 1,-16.77452 1.93397,0 1.6978,-1.37481 2.74865,16 l 0.9274,15.33334 0.23052,-19.61438 c 0.70051,-59.60224 11.54798,-91.71976 54.1691,-160.38563 31.36612,-50.53318 60.65409,-101.54211 73.95432,-128.80133 13.81924,-28.32292 21.4151,-48.74141 31.69309,-85.19426 6.37153,-22.59789 7.42579,-28.03077 8.04788,-41.47299 0.93401,-20.18184 1.30056,-19.86476 -22.96397,-19.86476 -14.88195,0 -19.81336,0.58967 -34.03667,4.06992 -9.14827,2.23846 -24.57401,5.54015 -34.27944,7.3371 -23.56783,4.36356 -34.28665,8.45293 -40.68711,15.52265 -2.75,3.03756 -5,5.96175 -5,6.49821 0,0.53647 -2.1,2.21442 -4.66666,3.72879 -2.56667,1.51437 -4.67703,3.52364 -4.68971,4.46503 -0.0279,2.06718 -5.76005,7.71164 -7.83156,7.71164 -2.59656,0 -1.6328,-6.49039 1.18793,-8 C 434.8,325.88174 436,324.58709 436,323.78968 c 0,-0.79742 3.48685,-5.1773 7.74855,-9.73308 4.2617,-4.55578 9.60218,-11.56767 11.86772,-15.58199 4.46333,-7.90859 17.80988,-20.53662 29.71706,-28.11723 24.45867,-15.5714 58.83388,-27.69071 78.54196,-27.69071 12.72838,0 28.12471,7.16006 28.12471,13.07939 0,4.02304 3.85805,-1.33639 7.80167,-10.83772 10.79088,-25.9984 16.1709,-66.24863 11.6008,-86.79042 -1.26678,-5.69386 -3.177,-12.44376 -4.24496,-14.99974 -1.06796,-2.55599 -1.57198,-5.8123 -1.12003,-7.23624 1.19377,-3.76128 -4.29832,-11.84844 -9.53128,-14.03491 -7.19828,-3.00763 -12.27644,-2.1753 -29.77095,4.8796 -18.36473,7.40581 -68.88029,34.06376 -90.88614,47.96219 -59.57095,37.62377 -114.5101,94.14643 -155.10566,159.57628 -5.82444,9.38754 -15.87933,25.41336 -22.3442,35.61295 -6.46486,10.19957 -11.55258,18.74641 -11.30604,18.99295 0.24654,0.24653 5.79307,-1.35842 12.32563,-3.56656 12.61396,-4.26379 15.24783,-4.28507 15.24783,-0.1232 0,1.88544 -1.73746,3.2341 -6.33334,4.91608 C 268.02237,404.8502 239.45939,419.22935 202,443.62755 c -37.77595,24.60436 -68.91348,52.31093 -85.82985,76.37247 l -7.03046,10 6.10963,0.4069 c 6.10879,0.40686 24.46349,-4.15341 45.04491,-11.19153 26.95426,-9.2174 25.60477,-9.04671 77.70577,-9.82848 l 48,-0.72023 8,-16 c 5.42631,-10.85261 8.81165,-16.15044 10.52292,-16.46761 2.30405,-0.42704 2.44292,0.13545 1.60077,6.48392 -1.30098,9.80732 -6.78577,22.71948 -12.47302,29.36376 l -4.84426,5.65941 -29.66581,-0.68114 -29.66581,-0.68116 -2.65868,11.49474 c -4.17938,18.06939 -5.48278,30.73972 -5.48278,53.29771 0,52.91422 11.86972,101.16972 38.6628,157.18089 19.23826,40.21774 47.68556,79.47393 74.10999,102.2689 7.55225,6.51495 7.62577,6.54375 6.80649,2.66667 -2.01898,-9.55456 -6.61552,-49.99429 -5.77774,-50.83205 2.45258,-2.45259 5.19918,4.27116 7.50392,18.36982 2.98612,18.26676 6.40732,32.307 8.60446,35.31177 1.3963,1.90956 1.9307,1.36644 4.0083,-4.07369 2.34985,-6.153 2.34078,-10.74972 -0.0455,-23.0286 -1.19537,-6.15108 1.20611,-5.48592 6.15309,1.70428 6.12074,8.89619 6.33444,12.97543 1.27284,24.2955 -2.54136,5.68364 -5.30832,9.91343 -6.79328,10.38473 -1.37798,0.43736 -2.48948,1.20476 -2.46997,1.70535 0.0535,1.37259 14.89148,11.65652 29.22721,20.25684 44.09843,26.4556 93.7919,44.73928 146.95647,54.06956 24.7026,4.33525 49.91436,15.25041 35.22533,15.25041 -2.62777,0 -4.77777,0.32391 -4.77777,0.71979 0,3.30263 19.68307,35.8095 29.43575,48.61355 8.76734,11.51047 35.9218,38.44337 46.25038,45.87307 7.06443,5.0816 32.11839,19.4192 33.98054,19.4459 0.55,0.01 1,-0.2976 1,-0.6789 z"
           id="path1941" />
        <path
           style="display:inline;fill:#6f918a;stroke-width:1.33333"
           d="m 558.4682,648.33335 c 3.87243,-18.0888 2.99476,-64.4924 -1.835,-97.01916 -3.48479,-23.46881 -18.79393,-79.38979 -21.70364,-79.27868 -0.51127,0.0195 -4.88915,6.76952 -9.72863,15 -4.83949,8.23048 -15.83229,26.82072 -24.42844,41.31164 -8.59616,14.49093 -15.43657,27.12855 -15.20093,28.0836 0.23564,0.95505 5.62537,6.34617 11.97719,11.98027 14.46094,12.82692 17.68481,17.24592 37.43389,51.31116 20.94924,36.1354 20.21417,34.92635 21.24021,34.93608 0.48923,0.004 1.49964,-2.84157 2.24535,-6.32491 z"
           id="path1985" />
      </g>
      <g
         id="layer5"
         inkscape:label="Lines">
        <path
           style="display:inline;fill:#000000;stroke-width:1.33333"
           d="m 565.78111,143.24371 c -0.44103,-1.14929 -0.27219,-2.5876 0.37518,-3.19625 3.1773,-2.98724 25.64414,-13.37632 28.93136,-13.37841 5.54344,-0.003 8.91235,2.28574 8.91235,6.05618 0,3.20753 -0.19847,3.27475 -7.2302,2.44831 -6.71133,-0.78879 -7.96256,-0.45474 -17.43571,4.65501 -11.3817,6.13921 -12.40838,6.39792 -13.55298,3.41516 z"
           id="path1983" />
        <path
           style="display:inline;fill:#000000;stroke-width:1.33333"
           d="m 541.33333,156.8883 c 0,-3.37592 20.36382,-15.63559 22.4711,-13.52831 1.31762,1.31763 -1.8289,5.21641 -5.90428,7.31585 -2.14508,1.10506 -6.07098,3.35506 -8.72419,5 -5.50317,3.41187 -7.84263,3.77355 -7.84263,1.21246 z"
           id="path1981" />
        <path
           style="display:inline;fill:#000000;stroke-width:1.33333"
           d="m 534.66667,186.66667 c 0,-1.77777 -0.8889,-2.66666 -2.66667,-2.66666 -1.95556,0 -2.66667,-0.8889 -2.66667,-3.33334 0,-3.70921 1.98135,-4.19592 7.2706,-1.78597 2.65234,1.20848 3.39607,2.52247 3.39607,6 0,3.56375 -0.53235,4.45264 -2.66667,4.45264 -1.77777,0 -2.66666,-0.88889 -2.66666,-2.66667 z"
           id="path1979" />
        <path
           style="display:inline;fill:#000000;stroke-width:1.33333"
           d="m 489.33333,202.70809 c 0,-2.39028 24.17428,-28.15935 32.46963,-34.61167 5.54825,-4.31555 7.98685,-5.5066 9.06564,-4.42782 1.07879,1.07879 -3.81303,6.61206 -18.18565,20.57025 -18.70003,18.16082 -23.34962,21.83858 -23.34962,18.46924 z"
           id="path1977" />
        <path
           style="display:inline;fill:#000000;stroke-width:1.33333"
           d="m 420,266.81182 c 0,-5.29181 31.69403,-31.87629 33.84795,-28.39117 0.78402,1.26858 -30.40424,30.91269 -32.52295,30.91269 -0.72875,0 -1.325,-1.13468 -1.325,-2.52152 z"
           id="path1973" />
        <path
           style="display:inline;fill:#000000;stroke-width:1.33333"
           d="m 414.66667,272.00001 c 0,-0.73334 0.9,-1.33334 2,-1.33334 1.1,0 2,0.6 2,1.33334 0,0.73333 -0.9,1.33333 -2,1.33333 -1.1,0 -2,-0.6 -2,-1.33333 z"
           id="path1971" />
        <path
           style="display:inline;fill:#000000;stroke-width:1.33333"
           d="m 409.53933,277.93071 c 0.25336,-1.30701 1.26798,-2.64521 2.25467,-2.97377 1.14751,-0.38211 1.628,0.259 1.33333,1.77903 -0.25336,1.30701 -1.26797,2.64521 -2.25466,2.97377 -1.14751,0.38211 -1.628,-0.259 -1.33334,-1.77903 z"
           id="path1969" />
        <path
           style="display:inline;fill:#000000;stroke-width:1.33333"
           d="m 369.33333,326.3179 c 0,-2.54557 18.71295,-28.02578 26.42747,-35.98456 5.19907,-5.36369 10.90587,-8.27945 10.90587,-5.57212 0,0.41866 -3.84608,5.06866 -8.54686,10.33334 -4.70077,5.26466 -12.35362,14.62306 -17.00634,20.79645 -8.3674,11.10213 -11.78014,14.12284 -11.78014,10.42689 z"
           id="path1967" />
        <path
           style="display:inline;fill:#000000;stroke-width:1.33333"
           d="m 343.71861,356.33334 c -5.67102,-6.03246 -10.38528,-13.83385 -10.38528,-17.18606 0,-4.98827 2.17186,-3.72798 7.7882,4.5194 2.8715,4.21666 6.49386,8.80965 8.04968,10.20665 1.55583,1.39699 2.82879,3.34699 2.82879,4.33333 0,3.03902 -4.65284,1.98651 -8.28139,-1.87332 z"
           id="path1965" />
        <path
           style="display:inline;fill:#000000;stroke-width:1.33333"
           d="m 391.33333,361.33334 c -0.45322,-0.73333 -3.20073,-1.33333 -6.10557,-1.33333 -4.66155,0 -6.90276,-1.33561 -19.09281,-11.37805 -14.85007,-12.2338 -25.75166,-25.64112 -24.1289,-29.67492 0.77395,-1.92384 1.47055,-1.56302 4.45566,2.30793 4.98578,6.46536 10.11941,11.50203 21.4187,21.0142 11.22856,9.45261 16.94848,12.51793 25.06603,13.43289 4.94761,0.55767 5.72023,1.07156 5.72023,3.80468 0,2.46134 -0.71954,3.15994 -3.25464,3.15994 -1.79006,0 -3.62547,-0.6 -4.0787,-1.33334 z"
           id="path1963" />
        <path
           style="display:inline;fill:#000000;stroke-width:1.33333"
           d="m 373.33333,378.57682 c 0,-0.82774 -1.14298,-1.06041 -2.73194,-0.55609 -3.16006,1.00296 -8.01003,-1.81212 -13.52515,-7.8504 -4.08432,-4.47175 -4.82591,-7.50365 -1.83536,-7.50365 2.53335,0 10.82135,5.10062 15.70732,9.66666 2.69845,2.52175 5.34873,3.66667 8.48769,3.66667 3.1681,0 4.56411,0.61173 4.56411,2 0,1.44444 -1.48148,2 -5.33333,2 -2.93334,0 -5.33334,-0.64043 -5.33334,-1.42319 z"
           id="path1961" />
        <path
           style="display:inline;fill:#000000;stroke-width:1.33333"
           d="m 336.66667,387.96474 c -3.01307,-2.02204 -5.23368,-2.48442 -9,-1.87401 -5.43474,0.8808 -5.813,0.50824 -3.40268,-3.35129 1.32393,-2.11995 0.98161,-3.77466 -2,-9.66771 -1.97852,-3.91049 -3.59732,-7.55139 -3.59732,-8.09085 0,-2.42366 5.18649,-0.61338 8.67509,3.02792 4.63559,4.8385 8.21829,3.23928 3.71391,-1.6578 -5.11996,-5.56631 -8.37899,-12.31098 -8.38402,-17.35099 -0.009,-8.82589 5.52307,-5.65951 9.90003,5.66667 3.09165,8.00024 5.43927,10.42222 9.37324,9.6702 2.7376,-0.52334 3.10132,-0.1937 2.46616,2.23514 -0.96608,3.69434 2.347,7.33986 11.25559,12.38498 3.85,2.18033 7,4.50696 7,5.17029 0,0.66333 1.2,1.20605 2.66666,1.20605 1.77778,0 2.66667,0.8889 2.66667,2.66667 0,1.77777 -0.88889,2.66667 -2.66667,2.66667 -1.46666,0 -2.66666,-0.84383 -2.66666,-1.87518 0,-1.21441 -0.93322,-1.63113 -2.64839,-1.18261 -2.77604,0.72596 -13.69095,-5.49389 -18.00361,-10.25933 -1.30408,-1.441 -2.89087,-2.29874 -3.5262,-1.90608 -2.61148,1.61398 -0.81183,4.19194 4.84486,6.94018 4.15863,2.02042 6,3.73874 6,5.59902 0,3.6472 -7.22044,3.63697 -12.66666,-0.018 z"
           id="path1959" />
        <path
           style="display:inline;fill:#000000;stroke-width:1.33333"
           d="m 302.66667,526.66668 c 0,-2.2 0.6,-4 1.33333,-4 0.73333,0 1.33333,1.8 1.33333,4 0,2.2 -0.6,4 -1.33333,4 -0.73333,0 -1.33333,-1.8 -1.33333,-4 z"
           id="path1957" />
        <path
           style="display:inline;fill:#000000;stroke-width:1.33333"
           d="m 297.67524,572.00002 c 0.39925,-17.6137 1.21633,-28.75572 2.29776,-31.33334 1.03861,-2.47554 1.9302,-3.31633 2.33944,-2.20613 1.16064,3.14864 -2.40835,58.14651 -3.86369,59.53947 -0.96743,0.92594 -1.20376,-7.01819 -0.77351,-26 z"
           id="path1955" />
        <path
           style="display:inline;fill:#000000;stroke-width:1.33333"
           d="m 296,606.00002 c 0,-1.1 0.6,-2 1.33333,-2 0.73334,0 1.33334,0.9 1.33334,2 0,1.1 -0.6,2 -1.33334,2 -0.73333,0 -1.33333,-0.9 -1.33333,-2 z"
           id="path1953" />
        <path
           style="display:inline;fill:#000000;stroke-width:1.33333"
           d="m 414.66667,702.74538 c 0,-2.24328 0.6,-4.07869 1.33333,-4.07869 0.73333,0 1.33333,1.46458 1.33333,3.25464 0,1.79005 -0.6,3.62546 -1.33333,4.07869 -0.77789,0.48077 -1.33333,-0.87504 -1.33333,-3.25464 z"
           id="path1951" />
        <path
           style="display:inline;fill:#000000;stroke-width:1.33333"
           d="m 315.72429,746.66669 c -3.05321,-4.66051 -8.40513,-25.58927 -11.59266,-45.33334 -2.32435,-14.39733 -3.65104,-27.09577 -7.47756,-71.57108 -0.68292,-7.93761 0.72049,-11.73435 3.29448,-8.91274 0.57724,0.63277 2.01889,12.89994 3.20366,27.2604 2.75531,33.39676 6.45427,58.84589 11.64142,80.09384 4.45813,18.26171 4.76316,24.31295 0.93066,18.46292 z"
           id="path1949" />
        <path
           style="display:inline;fill:#000000;stroke-width:1.33333"
           d="m 332.11867,786.9532 c -2.19231,-5.29272 -2.40778,-11.22631 -0.43303,-11.92499 1.97133,-0.69747 5.64769,7.28467 5.64769,12.26232 0,4.55203 -3.27724,4.34001 -5.21466,-0.33733 z"
           id="path1947" />
        <path
           style="display:inline;fill:#000000;stroke-width:1.33333"
           d="m 434.77833,860.78191 c -5.74237,-5.92463 -4.40804,-8.33416 2.62756,-4.74487 3.98955,2.03532 5.26078,3.48277 5.26078,5.99008 0,4.56169 -2.66831,4.14048 -7.88834,-1.24521 z"
           id="path1945" />
        <path
           style="display:inline;fill:#000000;stroke-width:1.33333"
           d="m 460.70131,904.82255 c -5.71607,-5.71607 -18.38078,-34.25416 -16.17866,-36.45628 1.48455,-1.48456 5.76764,3.69289 10.48652,12.67624 7.74592,14.74594 9.59235,17.62789 10.99083,17.15478 1.43369,-0.48502 1.39441,-5.43881 -0.10107,-12.7433 -1.1173,-5.45743 -1.08414,-5.4501 15.0293,3.32369 9.52641,5.18713 19.07176,13.62525 19.07176,16.85947 0,2.79805 -6.9964,0.40137 -14.26242,-4.88571 C 477.77189,894.95523 476,894.5182 476,898.34976 c 0,1.04791 -1.24085,3.64791 -2.75745,5.77777 -3.41758,4.79954 -8.17318,5.06308 -12.54124,0.69502 z"
           id="path1943" />
      </g>
      <path
         style="display:inline;fill:#ff0000;stroke-width:1.33333"
         d="m 488.14029,283.33334 c 4.33922,-3.3 8.21144,-6 8.60494,-6 0.39349,0 2.17605,1.57604 3.96126,3.50231 3.1928,3.44509 3.30611,3.46388 6.93634,1.15073 2.02977,-1.29336 4.9913,-3.9194 6.58117,-5.83564 l 2.89067,-3.48407 3.93996,3.75386 3.93996,3.75385 5.16937,-4.74748 c 5.99228,-5.50323 6.99493,-5.69648 10.86221,-2.09356 3.77423,3.51623 4.72266,3.39107 10.10346,-1.33333 2.50565,-2.2 5.07653,-3.99042 5.71306,-3.97871 0.63652,0.012 3.17867,1.80303 5.6492,3.98069 4.2564,3.75182 6.84144,4.17994 6.84144,1.13306 0,-1.76163 5.48684,-6.36591 7.65538,-6.42402 0.91045,-0.0244 2.40477,1.15564 3.32072,2.62231 2.14198,3.42987 3.69057,3.40208 3.69057,-0.0662 0,-3.19088 -3.58411,-10.60046 -5.12757,-10.60046 -0.58251,0 -3.51248,2.1 -6.51106,4.66667 -2.99857,2.56667 -6.07602,4.66667 -6.8388,4.66667 -0.76277,0 -3.00854,-2.12614 -4.9906,-4.72474 l -3.60373,-4.72474 -3.89452,4.72474 c -2.14199,2.5986 -4.41692,4.72474 -5.05541,4.72474 -0.63848,0 -2.19891,-1.75724 -3.46762,-3.90499 -1.2687,-2.14775 -3.35589,-4.17936 -4.6382,-4.51469 -2.38301,-0.62318 -9.20582,5.30302 -9.20582,7.99604 0,0.78674 -0.88796,2.16738 -1.97324,3.06809 -1.6089,1.33527 -2.74427,0.98885 -6.14918,-1.87619 -4.80958,-4.047 -6.13112,-3.48186 -11.40898,4.87883 -3.72723,5.90431 -5.3847,6.16837 -10.59455,1.68787 -4.89981,-4.21387 -5.37208,-4.18123 -9.6246,0.66504 -1.93047,2.2 -4.16408,4 -4.96357,4 -2.08238,0 -8.83375,7.34103 -7.74899,8.42577 1.38304,1.38306 1.50256,1.3218 9.93673,-5.09244 z"
         id="path1987" />
      <g
         id="layer7"
         inkscape:label="Teeth"
         style="fill:#ffeeaa">
        <path
           style="display:inline;fill:#ffeeaa;stroke-width:1.33333"
           d="m 571.63593,258.57985 c 4.34432,-3.81436 4.46818,-4.1356 1.8577,-4.81826 -1.53834,-0.40229 -2.51519,-1.18734 -2.1708,-1.74458 0.34438,-0.55724 -2.02274,-1.06634 -5.26028,-1.13132 -7.26194,-0.14576 -8.52459,2.71285 -3.58407,8.11432 1.84457,2.01666 3.61229,3.66666 3.92829,3.66666 0.31599,0 2.66911,-1.83908 5.22916,-4.08682 z"
           id="path2005" />
        <path
           style="display:inline;fill:#ffeeaa;stroke-width:1.33333"
           d="m 555.75233,251.3079 c -0.50436,-0.50436 -7.85897,1.08449 -12.94317,2.79619 -1.36095,0.45818 -0.83529,1.64756 1.96632,4.44917 l 3.82383,3.82383 3.86098,-5.25012 c 2.12354,-2.88758 3.60496,-5.50616 3.29204,-5.81907 z"
           id="path2003" />
        <path
           style="display:inline;fill:#ffeeaa;stroke-width:1.33333"
           d="m 532.04213,257.59693 c -0.62,-0.2217 -3.37069,0.53429 -6.11266,1.67994 -4.9262,2.05831 -4.95587,2.11566 -2.49944,4.82998 l 2.48594,2.74694 3.62671,-4.42689 c 1.99469,-2.43479 3.11944,-4.60828 2.49945,-4.82997 z"
           id="path2001" />
        <path
           style="display:inline;fill:#ffeeaa;stroke-width:1.33333"
           d="m 508.54405,270.00001 c 2.5114,-3.83287 2.55052,-3.80859 -3.01176,-1.86956 -4.15589,1.44874 -5.03265,2.59142 -3.31006,4.314 1.76133,1.76133 4.17849,0.82669 6.32182,-2.44444 z"
           id="path1999" />
        <path
           style="display:inline;fill:#ffeeaa;stroke-width:1.33333"
           d="m 578.62059,274.58058 c -1.17264,-2.19111 -1.85932,-2.43232 -3.36556,-1.18225 -2.36874,1.96588 -1.26587,3.93501 2.2039,3.93501 2.24919,0 2.41924,-0.40296 1.16166,-2.75276 z"
           id="path1997" />
        <path
           style="display:inline;fill:#ffeeaa;stroke-width:1.33333"
           d="m 561.33333,276.14266 c 0,-2.02425 -3.85814,-2.79725 -7.3449,-1.47159 -4.75627,1.80834 -4.11104,2.66227 2.01157,2.66227 2.93333,0 5.33333,-0.53581 5.33333,-1.19068 z"
           id="path1995" />
        <path
           style="display:inline;fill:#ffeeaa;stroke-width:1.33333"
           d="m 537.91149,278.80297 c 1.76938,-0.6929 2.08382,-1.31515 1.00235,-1.98354 -0.86671,-0.53565 -2.91039,-0.0392 -4.54151,1.10334 -3.14822,2.20509 -1.12748,2.70766 3.53916,0.8802 z"
           id="path1993" />
        <path
           style="display:inline;fill:#ffeeaa;stroke-width:1.33333"
           d="m 517.89095,283.19069 c 1.15998,-0.44512 2.10905,-1.34512 2.10905,-2 0,-1.90775 -3.52192,-1.37331 -5.33333,0.80932 -1.75967,2.12028 -0.45436,2.60231 3.22428,1.19068 z"
           id="path1991" />
        <path
           style="display:inline;fill:#ffeeaa;stroke-width:1.33333"
           d="m 497.80244,284.63265 c -0.63631,-1.65821 -1.18288,-1.72792 -2.95815,-0.37729 -1.19769,0.9112 -2.42762,1.82652 -2.73318,2.03402 -0.30555,0.20751 1.02561,0.3773 2.95816,0.3773 2.60162,0 3.3111,-0.52799 2.73317,-2.03403 z"
           id="path1989" />
      </g>
      <path
         style="display:inline;fill:#ffff00;stroke-width:1.33333"
         d="m 468.26667,203.73334 c -0.88,-0.88 -1.6,-4.83737 -1.6,-8.79417 0,-9.85879 3.56761,-14.93916 10.49078,-14.93916 6.048,0 8.1852,1.90636 8.1466,7.26666 -0.0392,5.44362 -4.42954,14.83816 -7.7697,16.62576 -3.5359,1.89235 -7.28052,1.82807 -9.26768,-0.15909 z"
         id="path1975" />
    </g>
  </g>
</svg>
